HIERARCHY
ROOT Hips
{
	OFFSET	0.00	0.00	0.00
	CHANNELS 6 Xposition Yposition Zposition Zrotation Xrotation Yrotation
	JOINT LeftUpLeg
	{
		OFFSET	 0.126116	-0.014019	-0.065224
		CHANNELS 3 Zrotation Xrotation Yrotation
		JOINT LeftLeg
		{
			OFFSET	 0.000000	 0.000000	 0.569914
			CHANNELS 3 Zrotation Xrotation Yrotation
			JOINT LeftFoot
			{
				OFFSET	 0.000000	 0.000000	 0.544423
				CHANNELS 3 Zrotation Xrotation Yrotation
				JOINT LeftToeBase
				{
					OFFSET	 0.000000	 0.000000	 0.207117
					CHANNELS 3 Zrotation Xrotation Yrotation
					End Site
					{
						OFFSET	 0.000000	 0.000000	 0.207117
					}
				}
			}
		}
	}
	JOINT RightUpLeg
	{
		OFFSET	-0.124023	-0.008373	-0.065224
		CHANNELS 3 Zrotation Xrotation Yrotation
		JOINT RightLeg
		{
			OFFSET	 0.000000	 0.000000	 0.570047
			CHANNELS 3 Zrotation Xrotation Yrotation
			JOINT RightFoot
			{
				OFFSET	 0.000000	 0.000000	 0.544354
				CHANNELS 3 Zrotation Xrotation Yrotation
				JOINT RightToeBase
				{
					OFFSET	 0.000000	 0.000000	 0.207540
					CHANNELS 3 Zrotation Xrotation Yrotation
					End Site
					{
						OFFSET	 0.000000	 0.000000	 0.207540
					}
				}
			}
		}
	}
	JOINT Spine
	{
		OFFSET	 0.000184	-0.007763	 0.117403
		CHANNELS 3 Zrotation Xrotation Yrotation
		JOINT Spine1
		{
			OFFSET	 0.000000	 0.000000	 0.137269
			CHANNELS 3 Zrotation Xrotation Yrotation
			JOINT Spine2
			{
				OFFSET	 0.000000	 0.000000	 0.156879
				CHANNELS 3 Zrotation Xrotation Yrotation
				JOINT LeftShoulder
				{
					OFFSET	 0.080501	-0.002496	 0.160144
					CHANNELS 3 Zrotation Xrotation Yrotation
					JOINT LeftArm
					{
						OFFSET	 0.000000	 0.000000	 0.164363
						CHANNELS 3 Zrotation Xrotation Yrotation
						JOINT LeftForeArm
						{
							OFFSET	 0.000000	 0.000000	 0.364576
							CHANNELS 3 Zrotation Xrotation Yrotation
							JOINT LeftHand
							{
								OFFSET	 0.000000	 0.000000	 0.360812
								CHANNELS 3 Zrotation Xrotation Yrotation
								JOINT LeftHandIndex1
								{
									OFFSET	 0.000000	 0.000000	 0.086006
									CHANNELS 3 Zrotation Xrotation Yrotation
									JOINT LeftHandIndex2
									{
										OFFSET	 0.000000	 0.000000	 0.047236
										CHANNELS 3 Zrotation Xrotation Yrotation
										JOINT LeftHandIndex3
										{
											OFFSET	-0.004284	-0.000551	 0.038166
											CHANNELS 3 Zrotation Xrotation Yrotation
											End Site
											{
												OFFSET	-0.004284	-0.000551	 0.038166
											}
										}
									}
								}
							}
						}
					}
				}
				JOINT Neck
				{
					OFFSET	 0.000000	 0.000000	 0.176489
					CHANNELS 3 Zrotation Xrotation Yrotation
					JOINT Head
					{
						OFFSET	 0.000000	-0.001747	 0.077940
						CHANNELS 3 Zrotation Xrotation Yrotation
						End Site
						{
							OFFSET	 0.000000	-0.001747	 0.077940
						}
					}
				}
				JOINT RightShoulder
				{
					OFFSET	-0.080363	 0.000306	 0.159706
					CHANNELS 3 Zrotation Xrotation Yrotation
					JOINT RightArm
					{
						OFFSET	 0.000000	 0.000000	 0.164196
						CHANNELS 3 Zrotation Xrotation Yrotation
						JOINT RightForeArm
						{
							OFFSET	 0.000000	 0.000000	 0.365611
							CHANNELS 3 Zrotation Xrotation Yrotation
							JOINT RightHand
							{
								OFFSET	 0.000000	 0.000000	 0.360648
								CHANNELS 3 Zrotation Xrotation Yrotation
								JOINT RightHandIndex1
								{
									OFFSET	 0.000000	 0.000000	 0.069977
									CHANNELS 3 Zrotation Xrotation Yrotation
									JOINT RightHandIndex2
									{
										OFFSET	 0.000000	 0.000000	 0.052305
										CHANNELS 3 Zrotation Xrotation Yrotation
										JOINT RightHandIndex3
										{
											OFFSET	 0.009002	-0.000782	 0.042196
											CHANNELS 3 Zrotation Xrotation Yrotation
											End Site
											{
												OFFSET	 0.009002	-0.000782	 0.042196
											}
										}
									}
								}
							}
						}
					}
				}
			}
		}
	}
}
MOTION
Frames:    6
Frame Time: 0.03333334
-0.000488	 0.019742	 1.271246	 0.004079	 0.007500	-0.095381	-2.339048	-1.393694	 178.214700	 1.480549	-11.356170	-0.662008	-6.706520	 70.910150	 0.559589	-2.385833	 28.452760	 0.000004	 2.222370	-2.053121	-178.050200	-1.456336	-12.243660	 0.702150	 6.635638	 71.209610	-0.644562	 2.384658	 28.388730	 0.000004	 1.869364	 2.722834	-0.014871	 1.143938	 3.668959	 0.466877	-3.436296	-4.628061	-0.760812	-91.776150	 78.527470	 180.000000	 54.994980	 38.467610	-62.802960	-8.456154	 0.188509	-0.581092	-30.443330	-11.330930	-4.474918	-2.635965	 4.993658	 6.788941	-5.165319	 0.784187	 3.516649	-5.225038	 0.466231	 0.424329	-0.000002	-3.783157	-0.089647	-3.329953	 4.944251	 0.143792	 89.782060	 78.203890	-180.000000	-63.111530	 41.469590	 54.265280	 7.756979	 5.325680	 12.207960	 30.749700	-12.091850	 9.134738	 6.112037	 4.509576	-0.364401	 4.968462	 1.518543	-9.347576	 5.168945	 0.703820	 2.021906
-0.000487	 0.019744	 1.271252	 0.004071	 0.007493	-0.095392	-2.292075	-1.401963	 178.211800	 1.480396	-11.369330	-0.662796	-6.710219	 70.914630	 0.563593	-2.385833	 28.452760	 0.000004	 2.175460	-2.061055	-178.047400	-1.456183	-12.255840	 0.702868	 6.638610	 71.213780	-0.647741	 2.384658	 28.388730	 0.000004	 1.723398	 2.722846	-0.014862	 1.143942	 3.668927	 0.466865	-3.436293	-4.628039	-0.760804	-91.776250	 78.527450	-179.999900	 54.978100	 38.462370	-62.776580	-8.575555	 0.190100	-0.630301	-30.540920	-11.531970	-4.495123	-2.635965	 4.993658	 6.788941	-5.165319	 0.784187	 3.516649	-5.225038	 0.466231	 0.424329	-0.000002	-3.783157	-0.089647	-3.329934	 4.944224	 0.143790	 89.782150	 78.203900	 180.000000	-62.982640	 41.399420	 54.425810	 7.781138	 5.335780	 12.264740	 30.819440	-12.328350	 9.132445	 6.112037	 4.509576	-0.364401	 4.968462	 1.518543	-9.347576	 5.168945	 0.703820	 2.021906
-0.000484	 0.019747	 1.271275	 0.004083	 0.007502	-0.095387	-2.172941	-1.422364	 178.204400	 1.480017	-11.401500	-0.664721	-6.719350	 70.925390	 0.573414	-2.385833	 28.452760	 0.000004	 2.056344	-2.080858	-178.040300	-1.455806	-12.285940	 0.704649	 6.645909	 71.223930	-0.655578	 2.384658	 28.388730	 0.000004	 1.344393	 2.722834	-0.014866	 1.143936	 3.668944	 0.466861	-3.436298	-4.628050	-0.760804	-91.776150	 78.527470	 180.000000	 54.933870	 38.443120	-62.704510	-8.884147	 0.195217	-0.757839	-30.794930	-12.052670	-4.550556	-2.635965	 4.993658	 6.788941	-5.165319	 0.784187	 3.516649	-5.225038	 0.466231	 0.424329	-0.000002	-3.783157	-0.089647	-3.329934	 4.944224	 0.143790	 89.782100	 78.203900	 180.000000	-62.636470	 41.184820	 55.040440	 7.841965	 5.284541	 12.241410	 31.027170	-12.966260	 9.118179	 6.112037	 4.509576	-0.364401	 4.968462	 1.518543	-9.347576	 5.168945	 0.703820	 2.021906
-0.000482	 0.019750	 1.271302	 0.004079	 0.007500	-0.095381	-2.073825	-1.439605	 178.198200	 1.479688	-11.428810	-0.666357	-6.727050	 70.934640	 0.581724	-2.385833	 28.452760	 0.000004	 1.957292	-2.097373	-178.034400	-1.455492	-12.311080	 0.706135	 6.652002	 71.232430	-0.662107	 2.384658	 28.388730	 0.000004	 1.019307	 2.722833	-0.014871	 1.143937	 3.668949	 0.466882	-3.436296	-4.628049	-0.760812	-91.776180	 78.527490	 180.000000	 54.889770	 38.428340	-62.634460	-9.148139	 0.200937	-0.867988	-31.013520	-12.497250	-4.601556	-2.635965	 4.993658	 6.788941	-5.165319	 0.784187	 3.516649	-5.225038	 0.466231	 0.424329	-0.000002	-3.783157	-0.089647	-3.329936	 4.944223	 0.143790	 89.782060	 78.203850	-180.000000	-62.371060	 40.843170	 55.733960	 7.786692	 5.207303	 12.205160	 31.326880	-13.641470	 9.047299	 6.112037	 4.509576	-0.364401	 4.968462	 1.518543	-9.347576	 5.168945	 0.703820	 2.021906
-0.000479	 0.019755	 1.271340	 0.004079	 0.007500	-0.095381	-1.957666	-1.459454	 178.190900	 1.479321	-11.460030	-0.668227	-6.735879	 70.945050	 0.591229	-2.385833	 28.452760	 0.000004	 1.841181	-2.116598	-178.027500	-1.455121	-12.340220	 0.707861	 6.659030	 71.242220	-0.669652	 2.384658	 28.388730	 0.000004	 0.626784	 2.722833	-0.014871	 1.143937	 3.668954	 0.466887	-3.436292	-4.628057	-0.760815	-91.776250	 78.527450	-180.000000	 54.835800	 38.401980	-62.544080	-9.466285	 0.209426	-1.001474	-31.278300	-13.030530	-4.667417	-2.635965	 4.993658	 6.788941	-5.165319	 0.784187	 3.516649	-5.225038	 0.466231	 0.424329	-0.000002	-3.783157	-0.089647	-3.329935	 4.944223	 0.143790	 89.782100	 78.203870	 180.000000	-61.916360	 40.382850	 56.510590	 7.711067	 5.220455	 12.397010	 31.684650	-14.447290	 8.971848	 6.112037	 4.509576	-0.364401	 4.968462	 1.518543	-9.347576	 5.168945	 0.703820	 2.021906
-0.000476	 0.019760	 1.271375	 0.004083	 0.007502	-0.095387	-1.852305	-1.477654	 178.184400	 1.478974	-11.488720	-0.669945	-6.743938	 70.954670	 0.599912	-2.385833	 28.452760	 0.000004	 1.735864	-2.134087	-178.021300	-1.454790	-12.366730	 0.709428	 6.665421	 71.251140	-0.676493	 2.384658	 28.388730	 0.000004	 0.260150	 2.722833	-0.014866	 1.143935	 3.668944	 0.466861	-3.436297	-4.628049	-0.760804	-91.776150	 78.527430	 180.000000	 54.776610	 38.381320	-62.449640	-9.763087	 0.218296	-1.125048	-31.526440	-13.524150	-4.733089	-2.635965	 4.993658	 6.788941	-5.165319	 0.784187	 3.516649	-5.225038	 0.466231	 0.424329	-0.000002	-3.783157	-0.089647	-3.329934	 4.944224	 0.143790	 89.782120	 78.203900	 180.000000	-61.324480	 39.872650	 57.025360	 7.524220	 5.422992	 13.060700	 32.026220	-15.214140	 8.900220	 6.112037	 4.509576	-0.364401	 4.968462	 1.518543	-9.347576	 5.168945	 0.703820	 2.021906
